<?xml version="1.0" encoding="UTF-8" standalone="no"?>
<!-- Created with Inkscape (http://www.inkscape.org/) -->

<svg
   width="81.65863mm"
   height="79.781891mm"
   viewBox="0 0 81.65863 79.781891"
   version="1.1"
   id="svg2837"
   xml:space="preserve"
   inkscape:export-filename="bitmap.svg"
   inkscape:export-xdpi="5.2009521"
   inkscape:export-ydpi="5.2009521"
   xmlns:inkscape="http://www.inkscape.org/namespaces/inkscape"
   xmlns:sodipodi="http://sodipodi.sourceforge.net/DTD/sodipodi-0.dtd"
   xmlns="http://www.w3.org/2000/svg"
   xmlns:svg="http://www.w3.org/2000/svg"><sodipodi:namedview
     id="namedview2839"
     pagecolor="#ffffff"
     bordercolor="#000000"
     borderopacity="0.25"
     inkscape:showpageshadow="2"
     inkscape:pageopacity="0.0"
     inkscape:pagecheckerboard="0"
     inkscape:deskcolor="#d1d1d1"
     inkscape:document-units="mm"
     showgrid="false" /><defs
     id="defs2834" /><g
     inkscape:label="Capa 1"
     inkscape:groupmode="layer"
     id="layer1"
     transform="translate(-63.091157,-114.2184)"><g
       id="g4339"
       transform="matrix(0.26458333,0,0,0.26458333,63.108949,114.19194)"
       style="fill:#f0c600;fill-opacity:1"><path
         d="m 216.6,20.3 c 1.3,0.8 3.2,1.6 5.3,2.4 -0.2,-0.9 -0.9,-1.7 -2.1,-2.5 -1.3,-0.7 -3.1,-1.4 -5.6,-2.1 0.2,0.7 1.1,1.4 2.4,2.2 z M 68.5,266 c -3.6,-2.6 -7,-5.4 -10.3,-8.3 -1.4,-1.2 -2.7,-2.3 -4.1,-3.5 -0.3,-0.4 -0.6,-0.9 -0.8,-1.3 0.3,-0.8 -0.4,-1.7 -1.5,-2.7 -1.1,-1 -2.7,-2 -4.3,-3 -2.7,-2.8 -3.7,-3.3 -5.1,-2.5 1.2,1.4 2.4,2.8 3.5,4 1,1.5 1.9,2.8 3,4.2 -2.3,-2.6 -4.3,-5.4 -6.5,-8.2 -1.5,-1.7 -2.9,-2 -3.5,-1.4 l 2.1,3.3 c 0.8,1.1 1.6,2.1 2.3,3.2 0.2,1.6 -1,1.2 -1.3,1.4 0.6,0.7 1.1,1.3 1.7,2 0.6,0.7 1.2,1.3 1.9,2 1.3,1.3 2.6,2.7 4,4 1.4,1.3 2.8,2.6 4.3,4 1.5,1.3 3,2.6 4.6,3.9 0.6,0.5 1.2,1 1.9,1.4 0.7,0.4 1.3,0.9 2,1.3 1.3,-0.4 2.6,-0.9 3.9,-1.4 -0.3,-0.2 -0.4,-0.3 -0.7,-0.6 1.2,-0.7 2,-1.2 2.9,-1.8 z m -17.4,-9.4 c -0.9,-1.1 -1.8,-2.3 -2.7,-3.4 1.2,1.3 2.3,2.9 3.7,4.2 0.4,0.4 0.8,0.8 1.2,1.1 -0.8,-0.4 -1.6,-1 -2.2,-1.9 z M 68.4,270 c 0.3,0.9 1.2,1.8 2.6,2.9 0.7,0.5 1.6,1 2.6,1.6 1,0.6 2.3,1.1 3.7,1.7 0.5,-0.3 -0.9,-1.5 -1.3,-2.3 -1.8,-1.2 -3.7,-2.7 -7.6,-3.9 z M 56.6,215.8 c 0.6,1.3 1.3,2.6 1.8,3.8 0.3,0.5 0.6,0.9 0.8,1.2 0.8,1.1 1.7,2.3 2.6,3.5 6,2.9 -2.6,-5.1 -2.9,-7.8 -0.5,0.4 -1.9,-1.6 -2.3,-0.7 z M 206.9,14 c -2,-1.5 -3.9,-2.8 -5.7,-3.5 -1.8,-0.7 -3.4,-1 -4.5,-0.6 0.5,1.6 4.3,2.7 10.2,4.1 z"
         id="path4327"
         style="fill:#f0c600;fill-opacity:1" /><path
         d="m 308.3,158.7 c -0.1,-0.9 -0.3,-1.9 -0.4,-3.2 -0.1,-1.3 -0.1,-2.8 -0.1,-4.7 -0.1,-0.1 -0.2,-0.1 -0.3,-0.2 -0.5,-0.2 -1,-0.5 -1.5,-0.7 -0.2,-1.8 -0.4,-3.3 -0.6,-4.9 -1.1,0.3 -2.2,0.8 -3.3,1.2 -0.7,-0.1 -1.5,-0.1 -2.3,0 -0.6,-0.3 -0.9,-0.4 -1.5,2.9 -0.6,0.8 -1.2,1.8 -1.8,2.7 -0.7,0 -1.5,-0.1 -2.3,-0.1 -1.2,-1.1 -2.6,-2.2 -3.9,-3.4 -0.4,-1.4 -0.8,-1.7 -1,-2.8 -0.7,-0.3 -1.5,-0.6 -2.2,-0.8 -0.9,-0.2 -1.9,-0.2 -2.9,-0.2 -0.5,0 -1.5,-1.2 -1.6,0.2 -0.8,0.7 -1.7,1.3 -2.5,2.2 -0.2,-0.5 -0.5,-0.8 -0.7,-1 0.1,12.2 -1.5,24.5 -5.1,36.2 0.2,1.3 -2.1,4.1 -0.6,4 -1,6.6 -3.7,12.2 -6.3,18.1 1.7,0.7 0.9,2.4 -0.5,4.2 -1.3,1.8 -3,3.8 -2.8,5.5 -1.6,0.5 -2.4,2.2 -3.4,4 -1,1.8 -2,3.9 -3.9,4.8 -4.2,6.7 -10.4,13.5 -16.2,18.3 -1.6,1.7 -3.2,3.3 -5,4.7 -0.9,0.7 -1.8,1.4 -2.8,2.1 -0.9,0.7 -1.9,1.4 -2.9,2 -2,1.3 -4,2.6 -6.2,3.7 l -3.3,1.8 c -1.1,0.6 -2.3,1.2 -3.5,1.8 0.1,0.8 -1.6,1.3 -1.8,2.3 -1.8,0.9 -3.7,1.7 -5.6,2.6 -1.9,0.8 -3.9,1.6 -5.8,2.4 -1.6,0.6 -3.3,1.2 -5.1,1.9 -1.8,0.6 -3.8,1.1 -5.7,1.7 -3.9,1 -7.9,1.9 -11.4,2.4 -0.6,0.8 -3.3,0.3 -3.2,2.1 -1,-0.3 -2.1,-0.5 -3.4,-0.4 -0.6,0 -1.3,0.2 -2,0.4 -0.7,0.2 -1.4,0.4 -2.2,0.8 -1.6,-0.5 -5.3,0.6 -5.2,-0.7 -1,0.1 -3.1,-0.2 -3.1,0.4 -0.6,0.3 -1.3,0.4 -2.2,0.4 -0.8,0 -1.7,-0.1 -2.5,-0.1 -1.4,0.3 -2.6,0.5 -4.1,0.8 1,-1.3 -3.3,-1.3 -3.6,-0.9 -0.6,0.3 -1.6,0.2 -2.7,0.2 -1.1,0 -2.2,0 -3.1,0.7 -0.3,0 -0.5,-0.1 -0.8,-0.1 -1,-0.7 -2,-1.2 -2.9,-1.4 -0.9,-0.2 -1.7,-0.2 -2.3,0.4 -0.8,-0.2 -1.4,-0.6 -2.3,-0.8 -0.9,-0.2 -2.1,-0.1 -4.1,0.5 -0.8,-0.1 -1.7,-0.2 -2.4,-0.2 1.3,-0.8 -1.2,-1 -0.7,-1.8 -1.3,0.1 -2.9,-0.2 -4.5,-0.6 -1.6,-0.4 -3.3,-0.9 -5,-1.5 -1.7,-0.6 -3.3,-1.2 -4.9,-1.7 -1.6,-0.6 -3,-1 -4.4,-1.1 -1.9,-0.8 -3.6,-1.6 -5.5,-2.5 -1.3,-0.5 -2.8,-1.4 -4.3,-2.1 -1.5,-0.7 -3,-1.3 -4.5,-1.5 -0.4,-0.2 -0.8,-0.5 -1.4,-0.8 -3.8,-2.3 -8.2,-6.2 -14.2,-8.9 -1.8,-1.5 -3.5,-3.1 -5.1,-4.7 -0.8,-0.8 -1.6,-1.6 -2.4,-2.3 -0.8,-0.7 -1.6,-1.5 -2.4,-2.2 -1.1,-1.2 -1.5,-2.1 -1.7,-3 0,-0.1 0,-0.2 -0.1,-0.3 -8.4,-6.5 -15,-14.4 -20.8,-23.2 -0.9,-0.4 -1.8,-0.6 -2.6,-0.9 -0.9,-0.7 -1.9,-1.6 -2.7,-2.4 -0.2,-0.4 -0.4,-0.9 -0.7,-1.4 -3.7,-7.7 -7.2,-17.2 -9.6,-25.4 -0.2,-0.1 -0.5,-0.4 -0.8,-0.6 -0.3,-0.8 -0.5,-1.7 -0.7,-2.8 -0.2,-1.1 -0.5,-2.6 -0.7,-4.6 0.3,-0.1 0.6,-0.1 1,-0.2 -3.9,-15.5 -5,-31 -2.9,-46.9 l 0.5,0.5 c 0.4,-4.2 1.1,-8.3 1.9,-12.3 v -0.1 c 0.1,-0.2 0.1,-0.5 0.2,-0.7 5.5,-25 19.1,-47.9 37.9,-65.4 -1,1 -1.5,2 -2.5,3 16.5,-17 37,-28 60.5,-33.5 6,-1 12,-2.5 18,-2 8.5,0 17.5,0 26,0.5 l -0.5,0.5 c 11.5,1 22.5,5 33.5,9 -1.5,-0.5 -3.5,-1 -5,-1.5 15.5,6 30,14 42,26 2.7,3.1 5.4,5.9 8.1,8.8 h 0.4 c 1.4,-0.5 1.6,-2.2 1.8,-3.3 -1,-1.5 -2.2,-2.8 -3.4,-4.3 -0.7,-1.1 -1.3,-2.1 -2.2,-3.2 -2,-1.9 -4.2,-3.9 -6.3,-5.6 -0.7,-0.9 -1.5,-1.7 -2.3,-2.6 -0.8,-0.8 -1.7,-1.6 -2.5,-2.4 -1.7,-1.7 -3.6,-3.1 -5.5,-4.6 l -1.4,-1.1 -1.5,-1 c -1,-0.7 -1.9,-1.4 -2.9,-2.1 -1.9,-1.4 -3.9,-2.6 -5.6,-4 -0.8,-0.9 -2.7,-1.8 -4.5,-2.8 -0.5,-0.2 -0.9,-0.5 -1.4,-0.7 -0.4,-0.2 -0.9,-0.4 -1.3,-0.6 -0.8,-0.4 -1.4,-0.8 -1.8,-1.2 -0.8,-0.4 -1.7,-0.8 -2.5,-1.2 -0.8,-0.4 -1.7,-0.7 -2.5,-1 -0.9,-0.4 -2,-0.8 -2.9,-1.2 0.6,-1.7 -3.6,-2.7 -5.1,-2.5 l -1.9,-0.7 -1.9,-0.6 -3.8,-1.1 c -1.3,-0.4 -2.6,-0.6 -3.9,-1 -1.3,-0.3 -2.6,-0.7 -3.9,-0.9 -1.3,-0.3 -2.6,-0.7 -3.9,-1 -0.2,-0.7 -1.4,-1.3 -2.9,-1.5 -1.5,-0.2 -3.2,-0.2 -4.2,0.1 -0.8,-0.1 -1.7,-0.2 -2.5,-0.3 -1.9,-0.6 -4.1,-1.2 -6.2,-1.8 1.2,-1 -1.5,-1.2 -0.6,-1.9 0.8,-0.6 1.4,-1.2 2,-1.8 1.2,-0.1 2.5,-0.1 4.1,-0.2 1.6,-0.2 3.6,-0.3 6.2,-0.6 l 3,0.6 c 1,0.2 1.9,0.5 2.9,0.7 1,0.2 1.9,0.5 2.9,0.7 0.5,0.1 1,0.2 1.4,0.4 0.5,0.1 1,0.3 1.4,0.4 0.1,0.7 1.2,1.4 2.9,1.8 1.7,0.4 4,0.8 6.7,0.8 -1.7,-1 -3.4,-2 -5.2,-2.8 0.1,-0.4 0.3,-0.8 0.4,-1.3 0,-0.1 0.1,-0.2 0.1,-0.3 -0.8,-0.3 -1.7,-0.7 -2.5,-1 -1.4,-0.3 -2.8,-0.7 -4.2,-1 -2,-0.2 -1.4,1.1 -3,1.4 -0.9,-0.4 -1.4,-1.1 -2.1,-1.7 -0.7,-0.6 -1.7,-1.2 -3.4,-1.2 -1.6,-0.2 -3.4,-0.3 -5.2,-0.4 -1.6,-0.1 -3.4,-0.1 -5.1,-0.2 0,0.1 0,0.3 -0.1,0.3 -1.3,0.3 -2.4,0.6 -3.7,1 -1.2,-0.1 -2.4,-0.1 -3.7,-0.1 -1.2,0 -2.5,-0.1 -3.7,0 -2.5,0.1 -4.9,0 -7,-0.2 C 136.2,1.3 128,2.3 120,4 c -0.9,-0.5 -2.3,-0.5 -3.8,-0.1 -1.5,0.4 -2.9,1.1 -3.9,1.7 -10.2,2.7 -20.2,6.6 -29.6,11.6 -1.5,0.2 -2.6,-0.4 -4.3,1 -0.9,1.1 -2.9,2 -3.2,3.4 -1.2,0.6 -2.4,1.1 -3.6,1.7 -1.1,0.6 -2.3,1.2 -3.4,1.8 -1.6,1 -3.3,2 -4.8,3.1 -1.6,1.1 -3.2,2.1 -4.7,3.3 -1.4,0.9 -2.9,1.9 -4.4,2.9 -1,1.1 -1.8,2.2 -2.9,3.4 -0.9,0.9 -1.9,1.7 -2.8,2.6 -0.9,0.9 -1.8,1.9 -2.8,2.9 -0.8,0.6 -1.7,1.3 -2.4,2.1 -0.8,0.8 -1.4,1.6 -1.7,2.3 -1.3,1.2 -2.7,2.4 -3.9,3.6 0.7,-1.8 -1.4,-1.1 -0.8,-3.1 -1.2,0.4 -2.4,2.6 -3.5,3.8 -0.5,1.3 -0.9,2.5 -1.3,3.8 -0.1,0.1 -0.3,0.4 -0.4,0.6 -0.4,-1.1 -1.5,-0.1 -2.3,0.5 -0.6,0.8 -1.1,1.5 -1.6,2.4 -0.5,1 -1.1,2.2 -1.7,4 -1.3,1.4 -2.1,1.9 -2.8,2.6 -1,2.1 -3.5,4.7 -3.1,6.5 -0.8,1.7 -1.5,3.2 -2.3,5 -1.1,1.7 -2,3.6 -3,5.4 -0.6,0.5 -1.1,1.5 -1.6,2.5 -0.4,1.1 -0.8,2.2 -1.3,3.2 -0.1,1.6 -0.2,3.2 -0.2,4.9 -0.6,1.9 -1.2,3.7 -1.8,5.6 -0.6,1.9 -1,3.7 -1.5,5.5 -0.4,1.3 -0.7,2.3 -1,3.6 -1,0.4 -2.2,3 -3.3,4.4 -0.5,1.8 -0.7,3.7 -0.7,6.5 -0.1,0.6 -0.2,1.1 -0.3,1.8 -2,1.6 -1.2,6.1 -1.5,8 0.4,1 0.9,1.9 1.3,2.9 -1,1.2 -0.8,3.5 -1,5.3 -2.8,4.3 -2.3,13 -1.7,20.6 0.6,1.3 1.2,2.5 1.9,3.8 0.2,1.8 0.3,3.6 0.5,5.3 0.2,1.8 0.5,3.5 0.7,5.3 -0.9,0.4 -1.1,2.6 -0.4,4.6 0.9,0.8 1.3,3 1.9,5.3 0.7,2.3 1.6,4.8 3.4,5.8 0.2,0.7 0.4,1.6 0.7,2.5 0.4,1.1 0.8,2.3 1.1,3.4 0.7,1.4 -0.1,-2.7 0.6,-1.3 0.7,1 1.3,2.5 2.1,3.8 0.8,1.3 1.5,2.3 2.2,2.3 0.2,-1.3 0,-2 -0.6,-3.1 -0.5,-1.1 -1.4,-2.7 -2.8,-5.7 C 12.8,187.1 9.3,180 9.5,175.7 8.7,174.1 8,172.4 7.3,170.6 6.9,168.2 6.7,167 6.5,165.5 c -0.7,-2.2 -1.4,-4.2 -2,-6.2 1,0.7 1.1,-3.3 2,-3.5 -0.1,-1.2 -0.1,-2.4 -0.2,-3.6 -0.1,-1.2 0,-2.4 -0.1,-3.5 0,-2.3 -0.1,-4.7 0,-7 0.2,-1.1 0.3,-2.3 0.5,-3.4 0.1,-1.5 0.3,-2.9 0.4,-4.3 0.2,-1.4 0.4,-2.9 0.6,-4.3 0.2,-0.3 0.5,-0.6 0.7,-0.8 0.2,0.6 0.5,1.2 0.8,2 1.6,-4.4 1.8,1.4 2.7,2.1 0.5,0.4 1,0.7 1.5,1.1 -0.2,2.4 -0.6,5.5 0.2,7.5 -0.2,0.5 -0.3,1 -0.4,1.7 -0.7,0.5 -1,2.5 -0.9,4.7 0,1.1 0.1,2.3 0.3,3.4 0.2,1.1 0.5,2 0.9,2.7 h 0.9 c 1.1,0.5 2.2,1.1 3.3,1.7 0.3,0.8 0.6,1.6 1,2.4 0.4,0.8 0.7,1.6 1.1,2.4 0.2,1.8 0.3,2.8 0.5,4 0.3,0 0.7,0 1.6,-0.1 0.3,1.5 0.5,3 0.7,4.3 0.2,1.3 0.6,2.5 1.3,3.4 0.4,1.8 0.8,3.5 1.2,5.3 l 1.5,5.4 c 0.5,2.1 1.3,4.3 1.9,6.4 0.7,2.1 1.5,4.2 2.1,6.3 0.6,1.9 1.3,3.7 1.9,5.5 0.6,1.9 1.5,3.6 2.2,5.5 0.6,1.6 1.4,3.2 2.1,4.7 0.7,1.6 1.4,3.1 2.2,4.7 0.2,1.3 0.6,2.9 1.3,4.5 0.8,1.6 1.8,3.2 3.1,4.6 0.8,0.3 1.6,0.5 2.5,0.9 0.4,0.5 0.9,1.2 1.3,1.9 -1.8,-0.4 -0.3,1.6 -0.3,2.4 1.1,1.3 2.4,2.5 3.6,3.7 0.1,1.2 0,2.2 0.1,3.3 1.7,2 3.2,3.8 4.9,5.7 1,1.7 3,2 3.7,2.6 0.9,0.8 1.8,1.6 2.8,2.4 l 3,2.4 c 3.1,2.7 3.1,4 4.7,6.3 -1,0 -1.9,0 -3,-0.1 -0.3,0.2 -0.6,0.4 -0.8,0.5 0.9,0.8 1.7,1.5 2.5,2.2 4.2,3 3.9,0.1 7.5,1.8 1.5,0.9 2.8,1.8 4.3,2.8 1.1,0.8 2.2,0.5 5,2.9 1.8,-0.3 2.7,0.4 3.7,1.4 1,1 2.1,2.4 4.2,3.2 -0.5,0.4 -1,0.9 -1.5,1.4 -1.2,-0.7 -2.5,-1.4 -3.7,-2 -1.3,-0.7 -2.5,-1.3 -3.7,-2.1 -0.1,0.1 -0.2,0.2 -0.3,0.2 0.2,0.9 0.5,1.8 0.7,2.7 2.1,1.1 4,2.1 6.1,3.2 2.2,1.1 4.6,2.4 6.8,3.5 1.8,0.8 3.9,1.6 5.8,2.3 2.3,0.9 4,1.6 5.5,2.2 1.4,1 2.9,1.8 4.2,2.6 1.2,0 2.5,0.2 3.8,0.4 1.3,0.2 2.7,0.4 4.2,0.8 3,0.7 6.5,1.3 10.7,2 1.9,0.5 4,1 5.8,1.4 l -1.8,3.3 c -1.8,-0.3 -3.6,-0.6 -5.3,-1 -1.6,-0.4 -3.1,-0.9 -4.6,-1.3 -0.8,-0.2 -1.5,-0.4 -2.3,-0.6 -0.8,-0.2 -1.5,-0.5 -2.3,-0.7 -0.2,0.3 -0.5,0.7 -0.8,1.1 -1,-0.1 -1.9,-0.3 -2.7,-0.4 -1.9,-1.2 -3.8,-2.5 -5.6,-3.8 -0.7,0.1 -1.5,0.2 -2.2,0.2 -4.7,-1.2 -6.3,-1.4 -6.8,0.1 -1.5,-0.4 -3,-0.8 -4.5,-1.3 -3.1,-1.6 -6.7,-3.7 -12.8,-5.3 0.3,0.6 0.9,1.2 1.6,1.7 0.8,0.5 1.7,1 2.8,1.5 1.1,0.5 2.3,1 3.6,1.5 1.3,0.5 2.7,0.9 4.1,1.3 1,0.5 2,1 3,1.4 l 3.1,1.3 c 2.1,0.9 4.1,1.8 6.2,2.5 0.6,0.1 1.3,0.1 1.8,0.3 0.3,-0.3 0.6,-0.7 0.8,-1.1 1.2,0.4 2.3,0.8 3.6,1.2 1.3,1.2 3.3,1.9 5.6,2.4 2.3,0.4 5,0.6 7.5,1 l 4.8,0.9 c 1.6,0.3 3.2,0.6 4.8,0.8 1.9,0.1 3.9,0.2 5.6,0.4 l 7.5,0.3 c 1.1,0.2 2.4,0.3 3.5,0.5 0.9,0 1.7,0 2.6,0.1 0.9,0.2 1.7,0.4 2.6,0.7 -0.2,0.5 -0.3,0.9 -0.5,1.3 0,0.1 -0.1,0.2 -0.1,0.3 2.6,1.4 3.8,1.3 6.2,0.2 1,0 1.9,-0.1 2.8,-0.1 0.9,-0.1 1.8,-0.1 2.8,-0.2 1.1,-0.5 2.2,-1 3.1,-1.5 0.7,0.1 1.3,0.1 1.8,0.2 1.4,0.5 1.2,1.1 2.3,1.3 3.1,-0.5 6.4,-1 9.3,-1.7 2.5,-0.5 5.4,-1 5.4,-0.1 1.2,-0.3 2.5,-0.5 4.1,-0.9 0.8,-0.2 1.7,-0.4 2.8,-0.8 1,-0.4 2.1,-0.8 3.3,-1.4 1.5,-0.9 3.1,-1.8 4.6,-2.7 0.7,-0.2 3.7,0 5.4,-2.5 -0.5,-0.4 -1.1,-0.8 -1.8,-1.1 0.9,-0.7 1.8,-1.5 2.7,-2.3 2.9,-1.1 5.7,-2.2 8.5,-3.5 0.7,0.3 1.6,0.3 2.6,0.2 0.8,-0.4 1.7,-0.8 2.6,-1.2 0.9,-0.4 1.8,-0.8 2.6,-1.3 1.7,-0.9 3.2,-1.9 3.8,-3.4 1.1,-0.5 2,-1.1 3.1,-2 1.1,-0.9 2.5,-2.1 4.6,-4 0.8,-0.5 1.5,-0.9 2.3,-1.4 1.6,-0.9 3.2,0.2 5.7,-2.4 1.6,-1.1 2.9,-2.1 3.4,-4 0.6,-1.1 1.1,-1.9 1.7,-3 1.9,-1.6 3.7,-3.4 5.5,-5.2 1.8,-1.7 3.5,-3.6 5.2,-5.4 0.5,-0.3 0.9,-0.6 1.5,-1 1.7,-0.7 3,-1.5 4.8,-3.6 0.7,-1.8 4.4,-4.4 4,-7.4 1,-1.2 1.8,-2.5 2.7,-3.8 0.9,-1 1.7,-2 2.6,-3.1 0.8,-1 1.7,-2.1 2.5,-3.3 0.9,-0.4 1.8,-1.4 2.7,-2.8 0.8,-1.4 1.7,-3.1 2.5,-4.9 1.2,-1.7 2,-3.2 2.6,-4.7 0.6,-1.5 0.9,-2.9 1,-4.5 0.5,-1.1 1.6,-2.5 1,-4 1.2,-2.4 2.9,-5.3 3.1,-10.3 0.6,-1.6 1.3,-3.3 2,-5.1 2.2,-1.7 2.4,0.4 4.4,-0.7 0.4,-2.2 0.8,-4.5 1.2,-6.7 0.7,-3.2 0.7,-5.2 1.6,-7.6 0.1,-1.3 0,-2.9 0,-4.2 0.4,-1.7 0.8,-3.5 1.2,-4.9 0.3,-1.5 0.4,-2.7 0.2,-3.3 0.4,-2.4 0.3,-4 0,-5.8 z M 191,17.8 c 0.5,0.2 1,0.3 1.5,0.4 0.5,0.1 1,0.3 1.6,0.4 -1.6,-0.5 -3.4,0.1 -4.7,-1.1 0,-0.1 -0.2,-0.2 -0.3,-0.4 0.6,0.3 1.2,0.5 1.9,0.7 z M 18.2,135.2 c 0.1,-0.9 0.2,-1.7 0.2,-2.6 0,0.8 -0.1,1.7 -0.2,2.6 z M 24.4,71 c 0.5,-0.9 1.1,-1.7 1.7,-2.4 -0.3,0.8 -0.7,1.6 -1.7,2.4 z m 165.4,215.5 c -0.1,0 -0.2,0 -0.4,0.1 l 0.9,-0.3 c -0.2,0 -0.3,0.1 -0.5,0.2 z m 85.4,-55.6 c 0.5,-0.9 1,-1.8 1.5,-2.9 0.3,-0.7 0.7,-1.4 1.1,-2.2 -0.5,1.3 -1.1,3 -2.6,5.1 z m 9.1,-14.5 c -0.6,1 -1.2,2.2 -1.7,3.2 0.6,-1.5 1.3,-2.9 2,-4.3 0,0.4 -0.2,0.7 -0.3,1.1 z m 2.9,-4.3 -0.2,0.2 c 0.1,-0.1 0.2,-0.1 0.2,-0.2 0.1,-0.2 0.2,-0.4 0.4,-0.6 -0.1,0.2 -0.2,0.4 -0.4,0.6 z"
         id="path4329"
         style="fill:#f0c600;fill-opacity:1" /></g><path
       d="m 133.82011,136.71284 c -1.31592,-1.34763 -4.01246,-1.85117 -6.25174,-0.68427 a 3.8761061,3.8761061 0 0 0 -0.74073,-0.73057 c 1.14976,-2.26531 0.52002,-5.0912 -0.94999,-6.52762 -1.29689,-1.26645 -3.05296,-1.34066 -4.58324,-0.19343 a 0.9525379,0.9525379 0 0 0 1.14218,1.52265 c 0.7908,-0.59487 1.48207,-0.58281 2.11119,0.0324 0.95887,0.93669 1.32351,2.92804 0.52002,4.39867 a 5.3778438,5.3778438 0 0 0 -0.98931,-0.0901 c -1.52268,0 -3.04028,0.56885 -3.94652,0.90942 l -0.19031,0.071 c -0.81747,0.30315 -1.59879,0.6215 -2.34837,0.95507 -1.96977,-0.51494 -4.0854,-0.88912 -5.98096,-0.88912 -2.41494,0 -4.19764,0.60057 -5.29921,1.78524 -0.93033,1.00072 -1.33939,2.36928 -1.21571,4.06952 0.12488,1.70973 0.83839,2.94068 2.063,3.62687 a 14.050885,14.050885 0 0 0 -0.60565,1.21381 c -2.19935,5.08169 -0.41985,9.42011 -0.3431,9.6034 l 0.14717,0.35006 0.34815,0.1522 c 0.0793,0.0343 1.96915,0.84599 4.71132,0.84599 a 13.761699,13.761699 0 0 0 6.43122,-1.57594 c 0.012,0.024 0.0192,0.0475 0.0312,0.0704 0.46994,0.91386 1.49413,2.03826 3.70299,2.19935 0.19966,0.0144 0.39319,0.0215 0.58027,0.0215 1.93806,0 3.42966,-0.7832 4.31368,-2.26466 1.47193,-2.4676 1.02548,-6.52697 0.116,-10.07014 a 40.399148,40.399148 0 0 0 1.295,-3.03265 c 0.77751,-2.04206 0.82127,-3.5831 0.52384,-4.73858 1.46624,-0.78956 3.24004,-0.52511 4.04734,0.3006 0.51622,0.52827 0.48134,1.19289 -0.10527,1.97356 a 0.9525379,0.9525379 0 0 0 0.76039,1.52267 c 0.28919,0 0.57456,-0.13134 0.76164,-0.3805 1.37236,-1.83152 0.87072,-3.49751 -0.0566,-4.44687 z m -8.97617,17.89592 c -0.60439,1.01406 -1.60132,1.43261 -3.12144,1.32036 -1.44023,-0.10471 -1.91649,-0.71916 -2.14988,-1.17197 -0.0324,-0.0628 -0.0501,-0.13758 -0.0779,-0.20421 -0.2505,-0.60311 -0.31837,-1.36412 -0.24608,-2.22977 0.0494,-0.59804 0.15868,-1.23919 0.32345,-1.91396 0.26444,-1.08001 0.65763,-2.23104 1.11108,-3.37321 a 44.15793,44.15793 0 0 1 1.08761,-2.49929 54.653606,54.653606 0 0 1 1.51317,-2.97177 l 0.0512,0.0512 c 0.71471,1.76177 1.46243,4.16023 1.87462,6.49275 0.45345,2.56588 0.50037,5.04744 -0.36591,6.49969 z m -17.84837,-13.40593 c -0.0849,-1.16753 0.14716,-2.02938 0.71092,-2.63566 0.72741,-0.78194 2.04206,-1.17828 3.90656,-1.17828 1.0356,0 2.15556,0.12679 3.28251,0.33103 2.35661,0.42806 4.73733,1.19924 6.42297,1.88035 l 0.0355,0.0355 a 56.765423,56.765423 0 0 1 -2.96987,1.51506 42.796348,42.796348 0 0 1 -2.49741,1.09015 c -1.1263,0.44837 -2.28112,0.83775 -3.38079,1.10285 -0.74326,0.1788 -1.45861,0.29742 -2.12387,0.33547 -0.15029,0.01 -0.30379,0.0192 -0.44837,0.0192 -0.72676,0 -1.30387,-0.10594 -1.74844,-0.33041 -0.73755,-0.37289 -1.10981,-1.07364 -1.18973,-2.16572 z m 12.81742,1.37619 0.52319,0.52318 a 46.178428,46.178428 0 0 0 -1.12122,2.46632 l -1.86893,-1.86891 a 48.319418,48.319418 0 0 0 2.46696,-1.12059 z m -5.75836,2.31284 3.97439,3.97503 c -0.29615,1.00963 -0.52065,2.01163 -0.6272,2.95972 l -6.29929,-6.29867 c 0.94047,-0.10904 1.93996,-0.33549 2.9521,-0.63608 z m -1.38632,10.2737 -5.19899,-5.199 a 11.29474,11.29474 0 0 1 0.75466,-2.83289 l 7.34825,7.34825 a 11.729788,11.729788 0 0 1 -2.90392,0.68364 z m 13.4427,-13.36216 c -0.11793,0.30884 -0.2373,0.60946 -0.35766,0.90434 -0.49912,-1.46115 -1.01026,-2.67498 -1.38124,-3.41696 a 0.9519037,0.9519037 0 0 0 -0.27778,-0.46105 0.94619608,0.94619608 0 0 0 -0.46296,-0.27712 c -0.75339,-0.38116 -1.85434,-0.84537 -3.15439,-1.29944 0.0431,-0.0167 0.0844,-0.0336 0.12752,-0.0494 l 0.19653,-0.0735 c 0.78576,-0.29491 2.10041,-0.78767 3.27808,-0.78767 0.77878,0 1.36729,0.20997 1.79981,0.64244 0.99248,0.9931 1.07112,2.61408 0.23202,4.81848 z m -23.22173,17.46976 a 0.95126952,0.95126952 0 0 1 -0.3856,-1.82139 c 0.86883,-0.38494 1.38568,-0.64304 1.39646,-0.64812 a 0.95166674,0.95166674 0 0 1 0.85171,1.70213 c 0,0 -0.54858,0.27462 -1.47763,0.68557 a 0.9525379,0.9525379 0 0 1 -0.38494,0.0817 z m -18.587184,15.34269 a 0.95126952,0.95126952 0 0 1 -0.30187,-1.85306 21.617283,21.617283 0 0 0 2.83732,-1.16754 0.95126952,0.95126952 0 0 1 0.854874,1.69962 23.553434,23.553434 0 0 1 -3.088453,1.27278 0.98424687,0.98424687 0 0 1 -0.301871,0.0481 z m 5.655617,-2.94831 a 0.95126952,0.95126952 0 0 1 -0.617693,-1.67486 c 0.130636,-0.11169 0.254305,-0.22386 0.370997,-0.33673 a 33.505615,33.505615 0 0 0 1.771894,-1.85815 0.95000116,0.95000116 0 0 1 1.341929,-0.0863 c 0.394458,0.34691 0.43377,0.94747 0.08619,1.34193 a 34.857687,34.857687 0 0 1 -1.873999,1.96658 c -0.145222,0.14142 -0.300594,0.28157 -0.462943,0.42047 -0.179486,0.1522 -0.398274,0.22698 -0.616428,0.22698 z m 4.208413,-4.81659 a 0.95126952,0.95126952 0 0 1 -0.785744,-1.48651 c 0.604372,-0.88911 1.106005,-1.77761 1.490313,-2.64008 a 0.94936698,0.94936698 0 0 1 1.255042,-0.48262 0.95000116,0.95000116 0 0 1 0.482609,1.25504 c -0.429964,0.96585 -0.986771,1.95455 -1.654569,2.93752 -0.183912,0.2708 -0.483242,0.41665 -0.787651,0.41665 z m -3.552041,-4.03654 a 0.95126952,0.95126952 0 0 1 -0.07865,-1.89938 24.599829,24.599829 0 0 0 3.049143,-0.46737 0.95126952,0.95126952 0 1 1 0.39763,1.86004 26.57213,26.57213 0 0 1 -3.286953,0.50354 0.86882617,0.86882617 0 0 1 -0.0812,0.002 z m -3.198167,-0.0413 c -0.04123,0 -0.08373,-0.002 -0.125573,-0.007 -1.306409,-0.17258 -2.446664,-0.54548 -3.390958,-1.10927 a 0.95144381,0.95144381 0 0 1 0.974735,-1.63427 c 0.720426,0.42996 1.617156,0.71851 2.664822,0.85677 a 0.95126952,0.95126952 0 0 1 -0.123033,1.89492 z m 9.46894,-1.25376 a 0.95317206,0.95317206 0 0 1 -0.947471,-0.86437 0.94492774,0.94492774 0 0 1 -0.199752,-0.75152 c 0.07609,-0.47184 0.114784,-0.94113 0.114784,-1.3952 0,-0.49592 -0.04626,-0.98805 -0.137601,-1.46115 a 0.95126952,0.95126952 0 1 1 1.867655,-0.36085 c 0.114784,0.59233 0.171855,1.20432 0.171855,1.82138 0,0.26191 -0.01109,0.52763 -0.03106,0.79462 a 50.068485,50.068485 0 0 0 1.863218,-0.65956 0.9519037,0.9519037 0 0 1 0.669064,1.78143 51.080004,51.080004 0 0 1 -3.093537,1.05399 0.93541505,0.93541505 0 0 1 -0.277133,0.0413 z m -14.640675,-2.0484 a 0.9525379,0.9525379 0 0 1 -0.852337,-0.527 c -0.442024,-0.88786 -0.726771,-1.93044 -0.842825,-3.09735 -0.0127,-0.11792 -0.02228,-0.23657 -0.02979,-0.35385 a 0.95126952,0.95126952 0 0 1 0.88785,-1.0109 0.94492774,0.94492774 0 0 1 1.010882,0.88786 c 0.0062,0.0933 0.01342,0.18769 0.02349,0.28411 0.09386,0.93858 0.313919,1.75923 0.653206,2.44096 a 0.9525379,0.9525379 0 0 1 -0.850437,1.37617 z m 13.208698,-4.60416 c -0.310122,0 -0.615153,-0.15147 -0.797801,-0.43187 a 8.368001,8.368001 0 0 0 -1.961519,-2.0858 0.95135428,0.95135428 0 1 1 1.15104,-1.51506 10.261661,10.261661 0 0 1 2.404805,2.56144 0.95126952,0.95126952 0 0 1 -0.796525,1.47129 z m -13.473785,-1.61207 a 0.95126952,0.95126952 0 0 1 -0.859313,-1.35842 c 0.551102,-1.16496 1.475735,-2.08581 2.674337,-2.66356 a 0.95126952,0.95126952 0 0 1 0.826335,1.71357 c -0.813019,0.39191 -1.412953,0.9855 -1.781412,1.76366 a 0.94936698,0.94936698 0 0 1 -0.859947,0.54475 z m 8.480882,-2.23169 c -0.107153,0 -0.216247,-0.0167 -0.322789,-0.0566 -0.934787,-0.33673 -1.913962,-0.52444 -2.832887,-0.5422 a 0.95126952,0.95126952 0 0 1 -0.932243,-0.97031 c 0.01076,-0.52509 0.441389,-0.9113 0.970294,-0.93223 1.123132,0.0216 2.312215,0.24924 3.439794,0.6551 a 0.95126952,0.95126952 0 0 1 -0.322169,1.84609 z m -10.868569,24.70576 a 0.95126952,0.95126952 0 0 1 -0.133171,-1.89303 c 0.496564,-0.0704 1.003908,-0.15867 1.507446,-0.26128 a 0.95145977,0.95145977 0 0 1 0.380508,1.86448 c -0.540321,0.10982 -1.085082,0.20349 -1.61906,0.28032 a 0.98297851,0.98297851 0 0 1 -0.135713,0.01 z"
       id="path4797"
       style="fill:#f0ca0c;fill-opacity:1;stroke-width:0.634179" /></g></svg>
